<?xml version="1.0" encoding="UTF-8" standalone="no"?>
<!-- Created with Inkscape (http://www.inkscape.org/) -->
<svg
   xmlns:dc="http://purl.org/dc/elements/1.1/"
   xmlns:cc="http://web.resource.org/cc/"
   xmlns:rdf="http://www.w3.org/1999/02/22-rdf-syntax-ns#"
   xmlns:svg="http://www.w3.org/2000/svg"
   xmlns="http://www.w3.org/2000/svg"
   xmlns:sodipodi="http://sodipodi.sourceforge.net/DTD/sodipodi-0.dtd"
   xmlns:inkscape="http://www.inkscape.org/namespaces/inkscape"
   width="1052.3622"
   height="744.09448"
   id="svg2"
   sodipodi:version="0.32"
   inkscape:version="0.45.1"
   sodipodi:docbase="d:\my documents\inkscape"
   sodipodi:docname="ist.svg"
   inkscape:output_extension="org.inkscape.output.svg.inkscape"
   version="1.0">
  <defs
     id="defs4" />
  <sodipodi:namedview
     id="base"
     pagecolor="#ffffff"
     bordercolor="#666666"
     borderopacity="1.0"
     gridtolerance="10000"
     guidetolerance="10"
     objecttolerance="10"
     inkscape:pageopacity="0.0"
     inkscape:pageshadow="2"
     inkscape:zoom="0.76334392"
     inkscape:cx="526.18109"
     inkscape:cy="372.04724"
     inkscape:document-units="px"
     inkscape:current-layer="layer1"
     inkscape:window-width="1280"
     inkscape:window-height="753"
     inkscape:window-x="-4"
     inkscape:window-y="-4"
     width="1052.3622px"
     height="744.09448px" />
  <metadata
     id="metadata7">
    <rdf:RDF>
      <cc:Work
         rdf:about="">
        <dc:format>image/svg+xml</dc:format>
        <dc:type
           rdf:resource="http://purl.org/dc/dcmitype/StillImage" />
      </cc:Work>
    </rdf:RDF>
  </metadata>
  <g
     inkscape:label="Layer 1"
     inkscape:groupmode="layer"
     id="layer1">
    <path
       style="fill:#45556a;fill-opacity:1"
       d="M 217.62353,509.20489 C 151.30021,433.07902 121.01271,353.69362 115.61687,241.83932 L 114.61597,221.09099 L 231.25987,221.09099 L 347.90374,221.09099 L 347.23621,230.19114 C 346.8691,235.19621 345.87588,248.46422 345.02898,259.67559 C 337.2554,362.59068 307.85721,435.63676 244.97083,508.29142 C 238.21263,516.09934 231.89859,522.48764 230.93952,522.48764 C 229.98051,522.48764 223.98829,516.51041 217.62353,509.20489 z M 244.30863,497.37125 C 256.6555,483.00149 272.20368,461.97954 278.60671,450.9985 L 282.51124,444.30235 L 282.13778,336.70073 L 281.76431,229.09912 L 230.43951,228.71649 L 179.1147,228.33385 L 179.1147,336.43344 L 179.1147,444.53301 L 184.47658,453.29786 C 196.53664,473.01204 227.04699,510.83946 230.88778,510.83946 C 231.90454,510.83946 237.94392,504.77877 244.30863,497.37125 z M 197.69754,416.83091 C 190.27348,412.80268 190.75357,402.84012 198.41615,401.91837 C 201.24654,401.57789 203.07995,402.70905 206.0862,406.65044 C 210.50945,412.4496 215.13829,413.35668 218.92968,409.16725 C 221.08049,406.79061 221.33939,400.71896 221.33939,352.64978 C 221.33939,295.245 222.18375,285.46886 228.00941,275.42298 C 232.51601,267.65178 238.02087,263.76676 247.3652,261.76275 C 259.46307,259.16824 269.3374,264.52295 267.71171,272.79636 C 266.43804,279.27809 256.8437,279.26701 253.37185,272.77979 C 250.56468,267.53451 245.1754,266.49748 241.22721,270.44286 C 238.13299,273.53485 238.07154,274.53843 237.31557,334.33493 C 236.76147,378.15923 236.04144,396.25428 234.73122,399.27991 C 231.23487,407.3542 226.66423,412.19534 219.30019,415.62429 C 210.84429,419.56163 203.48752,419.97255 197.69754,416.83091 z M 193.67494,339.02881 L 193.67494,295.34814 L 200.95506,295.34814 L 208.23518,295.34814 L 208.23518,339.02881 L 208.23518,382.70949 L 200.95506,382.70949 L 193.67494,382.70949 L 193.67494,339.02881 z M 251.91586,344.20098 L 251.91586,305.54029 L 248.27578,305.54029 C 245.08641,305.54029 244.63574,304.90935 244.63574,300.44422 L 244.63574,295.34814 L 259.92395,295.34814 L 275.21221,295.34814 L 275.21221,300.44422 C 275.21221,304.90027 274.75809,305.54029 271.59632,305.54029 L 267.98042,305.54029 L 267.59227,343.76088 L 267.20407,381.98147 L 259.55994,382.42157 L 251.91586,382.86167 L 251.91586,344.20098 z "
       id="path2236" />
    <text
       xml:space="preserve"
       style="font-size:40.44562912px;font-style:normal;font-weight:normal;fill:#45556a;fill-opacity:1;stroke:none;stroke-width:1px;stroke-linecap:butt;stroke-linejoin:miter;stroke-opacity:1;font-family:Tahoma"
       x="379.47568"
       y="355.46127"
       id="text2201"><tspan
         sodipodi:role="line"
         id="tspan2203"
         x="379.47568"
         y="355.46127"
         style="font-weight:bold;fill:#45556a;fill-opacity:1;font-family:Century Gothic">INSTITUTO SUPERIOR TÉCNICO</tspan></text>
    <text
       id="text2205"
       y="395.4613"
       x="379.47568"
       style="font-size:40.44562912px;font-style:normal;font-weight:bold;fill:#9ea7b2;fill-opacity:1;stroke:none;stroke-width:1px;stroke-linecap:butt;stroke-linejoin:miter;stroke-opacity:1;font-family:Tahoma"
       xml:space="preserve"><tspan
         style="font-size:38px;font-weight:bold;fill:#9ea7b2;fill-opacity:1;font-family:Corbel"
         y="395.4613"
         x="379.47568"
         id="tspan2207"
         sodipodi:role="line">Universidade Técnica de Lisboa</tspan></text>
  </g>
</svg>
