<?xml version="1.0" encoding="UTF-8" standalone="no"?>
<!-- Created with Inkscape (http://www.inkscape.org/) -->
<svg
   xmlns:dc="http://purl.org/dc/elements/1.1/"
   xmlns:cc="http://web.resource.org/cc/"
   xmlns:rdf="http://www.w3.org/1999/02/22-rdf-syntax-ns#"
   xmlns:svg="http://www.w3.org/2000/svg"
   xmlns="http://www.w3.org/2000/svg"
   xmlns:sodipodi="http://sodipodi.sourceforge.net/DTD/sodipodi-0.dtd"
   xmlns:inkscape="http://www.inkscape.org/namespaces/inkscape"
   width="744.09448819"
   height="1052.3622047"
   id="svg2"
   sodipodi:version="0.32"
   inkscape:version="0.45.1"
   sodipodi:docbase="d:\my documents\inkscape"
   sodipodi:docname="ist.svg"
   inkscape:output_extension="org.inkscape.output.svg.inkscape">
  <defs
     id="defs4" />
  <sodipodi:namedview
     id="base"
     pagecolor="#ffffff"
     bordercolor="#666666"
     borderopacity="1.0"
     gridtolerance="10000"
     guidetolerance="10"
     objecttolerance="10"
     inkscape:pageopacity="0.0"
     inkscape:pageshadow="2"
     inkscape:zoom="0.35"
     inkscape:cx="375"
     inkscape:cy="630.33285"
     inkscape:document-units="px"
     inkscape:current-layer="layer1"
     inkscape:window-width="1280"
     inkscape:window-height="753"
     inkscape:window-x="-4"
     inkscape:window-y="-4" />
  <metadata
     id="metadata7">
    <rdf:RDF>
      <cc:Work
         rdf:about="">
        <dc:format>image/svg+xml</dc:format>
        <dc:type
           rdf:resource="http://purl.org/dc/dcmitype/StillImage" />
      </cc:Work>
    </rdf:RDF>
  </metadata>
  <g
     inkscape:label="Layer 1"
     inkscape:groupmode="layer"
     id="layer1">
    <path
       style="fill:#45556a;fill-opacity:1"
       d="M 335.7707,791.27695 C 205.2772,641.49658 145.68545,485.30296 135.06894,265.2256 L 133.09964,224.40253 L 362.6007,224.40253 L 592.1017,224.40253 L 590.7883,242.30739 C 590.066,252.15505 588.1118,278.26033 586.4455,300.31911 C 571.1507,502.80823 513.3087,646.52902 389.5775,789.47967 C 376.2805,804.84204 363.8574,817.41124 361.9704,817.41124 C 360.0835,817.41124 348.2936,805.65082 335.7707,791.27695 z M 388.2746,767.99385 C 412.5675,739.72083 443.1591,698.35939 455.7573,676.75379 L 463.4396,663.57888 L 462.7048,451.86884 L 461.97,240.1588 L 360.9866,239.40596 L 260.0032,238.65312 L 260.0032,451.34293 L 260.0032,664.03272 L 270.5529,681.27787 C 294.2815,720.06623 354.3117,794.49303 361.8686,794.49303 C 363.8691,794.49303 375.7518,782.5684 388.2746,767.99385 z M 296.5656,609.52783 C 281.9585,601.60214 282.9031,582.00045 297.9795,580.18687 C 303.5484,579.51698 307.1557,581.74256 313.0706,589.4974 C 321.7735,600.90746 330.8809,602.69216 338.3406,594.44931 C 342.5724,589.77319 343.0818,577.82699 343.0818,483.24917 C 343.0818,370.30319 344.7431,351.06829 356.2053,331.30266 C 365.0722,316.01254 375.9032,308.36863 394.2885,304.42568 C 418.0915,299.32087 437.5196,309.85647 434.321,326.1347 C 431.815,338.88774 412.9378,338.86593 406.1068,326.10209 C 400.5836,315.78182 389.98,313.74143 382.2118,321.5041 C 376.1238,327.5877 376.0029,329.56227 374.5155,447.21404 C 373.4253,533.43991 372.0086,569.04258 369.4307,574.99561 C 362.5515,590.88206 353.5586,600.40718 339.0696,607.15376 C 322.4323,614.90063 307.9576,615.70913 296.5656,609.52783 z M 288.651,456.44942 L 288.651,370.50613 L 302.9749,370.50613 L 317.2988,370.50613 L 317.2988,456.44942 L 317.2988,542.39271 L 302.9749,542.39271 L 288.651,542.39271 L 288.651,456.44942 z M 403.2421,466.62585 L 403.2421,390.55956 L 396.0801,390.55956 C 389.8049,390.55956 388.9182,389.31816 388.9182,380.53285 L 388.9182,370.50613 L 418.9983,370.50613 L 449.0785,370.50613 L 449.0785,380.53285 C 449.0785,389.30028 448.185,390.55956 441.9641,390.55956 L 434.8497,390.55956 L 434.086,465.75994 L 433.3222,540.96032 L 418.2821,541.82623 L 403.2421,542.69214 L 403.2421,466.62585 z "
       id="path2236" />
  </g>
</svg>
